<svg width="350" height="197" xmlns="http://www.w3.org/2000/svg">
<path d="M214 152 L213 153 L213 160 L216 160 L217 159 L217 154 L215 152 Z" style="stroke:black; fill:none;"/>
<path d="M190 147 L193 147 L195 149 L195 160 L198 160 L199 159 L199 148 L200 147 L203 147 L205 149 L205 164 L204 165 L201 165 L200 164 L199 165 L197 165 L196 166 L194 166 L193 165 L191 165 L189 163 L189 161 L188 160 L188 149 Z" style="stroke:black; fill:none;"/>
<path d="M149 147 L152 147 L154 149 L154 164 L153 165 L149 165 L147 163 L147 149 Z" style="stroke:black; fill:none;"/>
<path d="M157 144 L158 143 L162 143 L163 144 L163 147 L166 147 L167 148 L167 152 L166 153 L163 153 L163 159 L164 160 L166 160 L167 161 L167 164 L166 165 L165 165 L164 166 L163 166 L162 165 L160 165 L157 162 L157 153 L155 153 L154 152 L154 149 L155 148 L157 148 Z" style="stroke:black; fill:none;"/>
<path d="M206 141 L207 140 L212 140 L213 141 L213 148 L214 147 L219 147 L222 150 L222 151 L223 152 L223 161 L222 162 L222 163 L220 165 L218 165 L217 166 L216 166 L215 165 L212 165 L211 164 L210 165 L207 165 L206 164 Z" style="stroke:black; fill:none;"/>
<path d="M168 141 L169 140 L174 140 L175 141 L175 149 L180 149 L181 148 L181 141 L182 140 L186 140 L187 141 L187 164 L186 165 L182 165 L181 164 L181 155 L175 155 L175 164 L174 165 L169 165 L168 164 Z" style="stroke:black; fill:none;"/>
<path d="M150 140 L152 140 L154 142 L154 145 L152 147 L149 147 L148 146 L148 145 L147 144 L147 143 Z" style="stroke:black; fill:none;"/>
<path d="M132 140 L133 139 L143 139 L145 141 L145 142 L144 143 L144 144 L143 145 L135 145 L133 147 L133 151 L132 152 L133 153 L133 157 L135 159 L140 159 L139 158 L139 157 L140 156 L138 156 L136 154 L136 151 L137 150 L145 150 L146 151 L146 163 L145 164 L144 164 L143 165 L140 165 L139 166 L137 166 L136 165 L133 165 L132 164 L131 164 L128 161 L128 160 L127 159 L127 158 L126 157 L126 148 L127 147 L127 145 L128 144 L128 143 L131 140 Z" style="stroke:black; fill:none;"/>
<path d="M172 82 L173 81 L175 81 L176 82 L175 83 L173 83 Z" style="stroke:black; fill:none;"/>
<path d="M175 81 L176 80 L177 81 L176 82 Z" style="stroke:black; fill:none;"/>
<path d="M171 81 L172 80 L173 81 L172 82 Z" style="stroke:black; fill:none;"/>
<path d="M172 77 L173 76 L174 76 L175 77 L175 78 L174 79 Z" style="stroke:black; fill:none;"/>
<path d="M184 68 L185 67 L186 68 L185 69 Z" style="stroke:black; fill:none;"/>
<path d="M185 67 L186 66 L188 66 L190 68 L190 74 L188 76 L186 76 L184 74 L184 73 L183 72 L183 70 L184 69 L186 69 L186 68 Z" style="stroke:black; fill:none;"/>
<path d="M160 67 L161 66 L162 66 L165 69 L165 73 L162 76 L160 76 L159 75 L159 74 L158 73 L158 70 L159 69 L160 70 L161 69 L160 68 Z" style="stroke:black; fill:none;"/>
<path d="M157 61 L156 62 L155 62 L153 64 L153 65 L151 67 L151 75 L152 76 L152 77 L153 78 L153 79 L154 80 L155 80 L157 82 L159 82 L160 83 L162 83 L163 84 L186 84 L187 83 L190 83 L191 82 L192 82 L195 79 L195 78 L196 77 L196 75 L197 74 L197 69 L196 68 L196 66 L191 61 Z" style="stroke:black; fill:none;"/>
<path d="M147 36 L148 35 L151 35 L152 36 L154 36 L155 37 L156 37 L157 38 L158 38 L159 39 L160 39 L161 40 L165 40 L166 39 L182 39 L183 40 L186 40 L188 38 L189 38 L190 37 L191 37 L192 36 L194 36 L195 35 L198 35 L199 36 L199 37 L200 38 L200 42 L201 43 L201 44 L200 45 L200 48 L202 50 L202 51 L203 52 L203 53 L204 54 L204 55 L205 56 L205 59 L206 60 L206 67 L205 68 L205 73 L204 74 L204 76 L203 77 L203 78 L197 84 L196 84 L195 85 L193 85 L192 86 L190 86 L189 87 L185 87 L184 88 L186 90 L186 91 L187 92 L187 109 L188 110 L188 111 L191 114 L191 115 L190 116 L186 116 L184 114 L183 114 L182 113 L182 112 L181 111 L181 96 L181 115 L183 117 L183 118 L181 120 L180 120 L179 119 L178 119 L174 115 L174 94 L174 115 L170 119 L169 119 L168 120 L167 120 L165 118 L165 117 L166 116 L167 116 L167 97 L168 96 L167 96 L167 111 L166 112 L166 113 L164 115 L163 115 L162 116 L158 116 L157 115 L157 114 L161 110 L161 100 L154 100 L153 99 L151 99 L146 94 L146 93 L145 92 L145 91 L143 89 L142 89 L139 86 L141 84 L142 84 L143 85 L145 85 L149 89 L149 90 L152 93 L153 93 L154 94 L159 94 L160 93 L161 93 L161 92 L162 91 L162 90 L164 88 L164 87 L159 87 L158 86 L156 86 L155 85 L154 85 L153 84 L152 84 L151 83 L150 83 L145 78 L145 77 L144 76 L144 75 L143 74 L143 72 L142 71 L142 66 L141 65 L141 61 L142 60 L142 56 L143 55 L143 54 L144 53 L144 52 L146 50 L146 38 L147 37 Z" style="stroke:black; fill:none;"/>
</svg>